<svg viewBox="0 0 640 688" xmlns="http://www.w3.org/2000/svg" shape-rendering="crispEdges">\n  <rect width="640" height="688" rx="140.8" fill="#143825" />\n  <rect x="288" y="64" width="16" height="16" fill="#5C4033" />\n  <rect x="304" y="64" width="16" height="16" fill="#5C4033" />\n  <rect x="320" y="64" width="16" height="16" fill="#3A2820" />\n  <rect x="288" y="80" width="16" height="16" fill="#5C4033" />\n  <rect x="304" y="80" width="16" height="16" fill="#5C4033" />\n  <rect x="320" y="80" width="16" height="16" fill="#3A2820" />\n  <rect x="288" y="96" width="16" height="16" fill="#5C4033" />\n  <rect x="304" y="96" width="16" height="16" fill="#5C4033" />\n  <rect x="320" y="96" width="16" height="16" fill="#3A2820" />\n  <rect x="288" y="112" width="16" height="16" fill="#5C4033" />\n  <rect x="304" y="112" width="16" height="16" fill="#5C4033" />\n  <rect x="320" y="112" width="16" height="16" fill="#3A2820" />\n  <rect x="288" y="128" width="16" height="16" fill="#5C4033" />\n  <rect x="304" y="128" width="16" height="16" fill="#5C4033" />\n  <rect x="320" y="128" width="16" height="16" fill="#3A2820" />\n  <rect x="288" y="144" width="16" height="16" fill="#5C4033" />\n  <rect x="304" y="144" width="16" height="16" fill="#5C4033" />\n  <rect x="320" y="144" width="16" height="16" fill="#3A2820" />\n  <rect x="288" y="160" width="16" height="16" fill="#5C4033" />\n  <rect x="304" y="160" width="16" height="16" fill="#5C4033" />\n  <rect x="320" y="160" width="16" height="16" fill="#3A2820" />\n  <rect x="288" y="176" width="16" height="16" fill="#5C4033" />\n  <rect x="304" y="176" width="16" height="16" fill="#5C4033" />\n  <rect x="320" y="176" width="16" height="16" fill="#3A2820" />\n  <rect x="288" y="192" width="16" height="16" fill="#5C4033" />\n  <rect x="304" y="192" width="16" height="16" fill="#5C4033" />\n  <rect x="320" y="192" width="16" height="16" fill="#3A2820" />\n  <rect x="288" y="208" width="16" height="16" fill="#5C4033" />\n  <rect x="304" y="208" width="16" height="16" fill="#5C4033" />\n  <rect x="320" y="208" width="16" height="16" fill="#3A2820" />\n  <rect x="288" y="224" width="16" height="16" fill="#5C4033" />\n  <rect x="304" y="224" width="16" height="16" fill="#5C4033" />\n  <rect x="320" y="224" width="16" height="16" fill="#3A2820" />\n  <rect x="288" y="240" width="16" height="16" fill="#5C4033" />\n  <rect x="304" y="240" width="16" height="16" fill="#5C4033" />\n  <rect x="320" y="240" width="16" height="16" fill="#3A2820" />\n  <rect x="288" y="256" width="16" height="16" fill="#5C4033" />\n  <rect x="304" y="256" width="16" height="16" fill="#5C4033" />\n  <rect x="320" y="256" width="16" height="16" fill="#3A2820" />\n  <rect x="288" y="272" width="16" height="16" fill="#5C4033" />\n  <rect x="304" y="272" width="16" height="16" fill="#5C4033" />\n  <rect x="320" y="272" width="16" height="16" fill="#3A2820" />\n  <rect x="288" y="288" width="16" height="16" fill="#5C4033" />\n  <rect x="304" y="288" width="16" height="16" fill="#5C4033" />\n  <rect x="320" y="288" width="16" height="16" fill="#3A2820" />\n  <rect x="288" y="304" width="16" height="16" fill="#5C4033" />\n  <rect x="304" y="304" width="16" height="16" fill="#5C4033" />\n  <rect x="320" y="304" width="16" height="16" fill="#3A2820" />\n  <rect x="288" y="320" width="16" height="16" fill="#5C4033" />\n  <rect x="304" y="320" width="16" height="16" fill="#5C4033" />\n  <rect x="320" y="320" width="16" height="16" fill="#3A2820" />\n  <rect x="288" y="336" width="16" height="16" fill="#5C4033" />\n  <rect x="304" y="336" width="16" height="16" fill="#5C4033" />\n  <rect x="320" y="336" width="16" height="16" fill="#3A2820" />\n  <rect x="288" y="352" width="16" height="16" fill="#5C4033" />\n  <rect x="304" y="352" width="16" height="16" fill="#5C4033" />\n  <rect x="320" y="352" width="16" height="16" fill="#3A2820" />\n  <rect x="288" y="368" width="16" height="16" fill="#5C4033" />\n  <rect x="304" y="368" width="16" height="16" fill="#5C4033" />\n  <rect x="320" y="368" width="16" height="16" fill="#3A2820" />\n  <rect x="288" y="384" width="16" height="16" fill="#5C4033" />\n  <rect x="304" y="384" width="16" height="16" fill="#5C4033" />\n  <rect x="320" y="384" width="16" height="16" fill="#3A2820" />\n  <rect x="288" y="400" width="16" height="16" fill="#5C4033" />\n  <rect x="304" y="400" width="16" height="16" fill="#5C4033" />\n  <rect x="320" y="400" width="16" height="16" fill="#3A2820" />\n  <rect x="288" y="416" width="16" height="16" fill="#5C4033" />\n  <rect x="304" y="416" width="16" height="16" fill="#5C4033" />\n  <rect x="320" y="416" width="16" height="16" fill="#3A2820" />\n  <rect x="288" y="432" width="16" height="16" fill="#5C4033" />\n  <rect x="304" y="432" width="16" height="16" fill="#5C4033" />\n  <rect x="320" y="432" width="16" height="16" fill="#3A2820" />\n  <rect x="288" y="448" width="16" height="16" fill="#5C4033" />\n  <rect x="304" y="448" width="16" height="16" fill="#5C4033" />\n  <rect x="320" y="448" width="16" height="16" fill="#3A2820" />\n  <rect x="288" y="464" width="16" height="16" fill="#5C4033" />\n  <rect x="304" y="464" width="16" height="16" fill="#5C4033" />\n  <rect x="320" y="464" width="16" height="16" fill="#3A2820" />\n  <rect x="288" y="480" width="16" height="16" fill="#5C4033" />\n  <rect x="304" y="480" width="16" height="16" fill="#5C4033" />\n  <rect x="320" y="480" width="16" height="16" fill="#3A2820" />\n  <rect x="288" y="496" width="16" height="16" fill="#5C4033" />\n  <rect x="304" y="496" width="16" height="16" fill="#5C4033" />\n  <rect x="320" y="496" width="16" height="16" fill="#3A2820" />\n  <rect x="288" y="512" width="16" height="16" fill="#5C4033" />\n  <rect x="304" y="512" width="16" height="16" fill="#5C4033" />\n  <rect x="320" y="512" width="16" height="16" fill="#3A2820" />\n  <rect x="288" y="528" width="16" height="16" fill="#5C4033" />\n  <rect x="304" y="528" width="16" height="16" fill="#5C4033" />\n  <rect x="320" y="528" width="16" height="16" fill="#3A2820" />\n  <rect x="288" y="544" width="16" height="16" fill="#5C4033" />\n  <rect x="304" y="544" width="16" height="16" fill="#5C4033" />\n  <rect x="320" y="544" width="16" height="16" fill="#3A2820" />\n  <rect x="288" y="560" width="16" height="16" fill="#5C4033" />\n  <rect x="304" y="560" width="16" height="16" fill="#5C4033" />\n  <rect x="320" y="560" width="16" height="16" fill="#3A2820" />\n  <rect x="288" y="576" width="16" height="16" fill="#5C4033" />\n  <rect x="304" y="576" width="16" height="16" fill="#5C4033" />\n  <rect x="320" y="576" width="16" height="16" fill="#3A2820" />\n  <rect x="288" y="592" width="16" height="16" fill="#5C4033" />\n  <rect x="304" y="592" width="16" height="16" fill="#5C4033" />\n  <rect x="320" y="592" width="16" height="16" fill="#3A2820" />\n  <rect x="288" y="608" width="16" height="16" fill="#5C4033" />\n  <rect x="304" y="608" width="16" height="16" fill="#5C4033" />\n  <rect x="320" y="608" width="16" height="16" fill="#3A2820" />\n  <g>\n    <animateTransform attributeName="transform" type="rotate" values="10 320.0 320; 18 320.0 320; 10 320.0 320" dur="5s" repeatCount="indefinite" />\n    <rect x="288" y="64" width="16" height="16" fill="#4A4644" />\n    <rect x="304" y="64" width="16" height="16" fill="#4A4644" />\n    <rect x="320" y="64" width="16" height="16" fill="#4A4644" />\n    <rect x="272" y="80" width="16" height="16" fill="#4A4644" />\n    <rect x="288" y="80" width="16" height="16" fill="#2C2A29" />\n    <rect x="304" y="80" width="16" height="16" fill="#2C2A29" />\n    <rect x="320" y="80" width="16" height="16" fill="#2C2A29" />\n    <rect x="336" y="80" width="16" height="16" fill="#4A4644" />\n    <rect x="352" y="80" width="16" height="16" fill="#4A4644" />\n    <rect x="256" y="96" width="16" height="16" fill="#4A4644" />\n    <rect x="272" y="96" width="16" height="16" fill="#2C2A29" />\n    <rect x="288" y="96" width="16" height="16" fill="#2C2A29" />\n    <rect x="304" y="96" width="16" height="16" fill="#2C2A29" />\n    <rect x="320" y="96" width="16" height="16" fill="#2C2A29" />\n    <rect x="336" y="96" width="16" height="16" fill="#2C2A29" />\n    <rect x="352" y="96" width="16" height="16" fill="#2C2A29" />\n    <rect x="368" y="96" width="16" height="16" fill="#4A4644" />\n    <rect x="240" y="112" width="16" height="16" fill="#4A4644" />\n    <rect x="256" y="112" width="16" height="16" fill="#2C2A29" />\n    <rect x="272" y="112" width="16" height="16" fill="#2C2A29" />\n    <rect x="288" y="112" width="16" height="16" fill="#2C2A29" />\n    <rect x="304" y="112" width="16" height="16" fill="#2C2A29" />\n    <rect x="320" y="112" width="16" height="16" fill="#2C2A29" />\n    <rect x="336" y="112" width="16" height="16" fill="#2C2A29" />\n    <rect x="352" y="112" width="16" height="16" fill="#2C2A29" />\n    <rect x="368" y="112" width="16" height="16" fill="#4A4644" />\n    <rect x="224" y="128" width="16" height="16" fill="#4A4644" />\n    <rect x="240" y="128" width="16" height="16" fill="#2C2A29" />\n    <rect x="256" y="128" width="16" height="16" fill="#2C2A29" />\n    <rect x="272" y="128" width="16" height="16" fill="#2C2A29" />\n    <rect x="288" y="128" width="16" height="16" fill="#2C2A29" />\n    <rect x="304" y="128" width="16" height="16" fill="#2C2A29" />\n    <rect x="320" y="128" width="16" height="16" fill="#2C2A29" />\n    <rect x="336" y="128" width="16" height="16" fill="#2C2A29" />\n    <rect x="352" y="128" width="16" height="16" fill="#2C2A29" />\n    <rect x="368" y="128" width="16" height="16" fill="#2C2A29" />\n    <rect x="384" y="128" width="16" height="16" fill="#4A4644" />\n    <rect x="224" y="144" width="16" height="16" fill="#4A4644" />\n    <rect x="240" y="144" width="16" height="16" fill="#2C2A29" />\n    <rect x="256" y="144" width="16" height="16" fill="#2C2A29" />\n    <rect x="272" y="144" width="16" height="16" fill="#2C2A29" />\n    <rect x="288" y="144" width="16" height="16" fill="#2C2A29" />\n    <rect x="304" y="144" width="16" height="16" fill="#2C2A29" />\n    <rect x="320" y="144" width="16" height="16" fill="#2C2A29" />\n    <rect x="336" y="144" width="16" height="16" fill="#2C2A29" />\n    <rect x="352" y="144" width="16" height="16" fill="#2C2A29" />\n    <rect x="368" y="144" width="16" height="16" fill="#2C2A29" />\n    <rect x="384" y="144" width="16" height="16" fill="#4A4644" />\n    <rect x="400" y="144" width="16" height="16" fill="#4A4644" />\n    <rect x="208" y="160" width="16" height="16" fill="#4A4644" />\n    <rect x="224" y="160" width="16" height="16" fill="#2C2A29" />\n    <rect x="240" y="160" width="16" height="16" fill="#2C2A29" />\n    <rect x="256" y="160" width="16" height="16" fill="#2C2A29" />\n    <rect x="272" y="160" width="16" height="16" fill="#2C2A29" />\n    <rect x="288" y="160" width="16" height="16" fill="#2C2A29" />\n    <rect x="304" y="160" width="16" height="16" fill="#2C2A29" />\n    <rect x="320" y="160" width="16" height="16" fill="#2C2A29" />\n    <rect x="336" y="160" width="16" height="16" fill="#2C2A29" />\n    <rect x="352" y="160" width="16" height="16" fill="#2C2A29" />\n    <rect x="368" y="160" width="16" height="16" fill="#2C2A29" />\n    <rect x="384" y="160" width="16" height="16" fill="#2C2A29" />\n    <rect x="400" y="160" width="16" height="16" fill="#2C2A29" />\n    <rect x="416" y="160" width="16" height="16" fill="#4A4644" />\n    <rect x="176" y="176" width="16" height="16" fill="#4A4644" />\n    <rect x="192" y="176" width="16" height="16" fill="#4A4644" />\n    <rect x="208" y="176" width="16" height="16" fill="#2C2A29" />\n    <rect x="224" y="176" width="16" height="16" fill="#2C2A29" />\n    <rect x="240" y="176" width="16" height="16" fill="#2C2A29" />\n    <rect x="256" y="176" width="16" height="16" fill="#2C2A29" />\n    <rect x="272" y="176" width="16" height="16" fill="#2C2A29" />\n    <rect x="288" y="176" width="16" height="16" fill="#2C2A29" />\n    <rect x="304" y="176" width="16" height="16" fill="#2C2A29" />\n    <rect x="320" y="176" width="16" height="16" fill="#2C2A29" />\n    <rect x="336" y="176" width="16" height="16" fill="#2C2A29" />\n    <rect x="352" y="176" width="16" height="16" fill="#2C2A29" />\n    <rect x="368" y="176" width="16" height="16" fill="#2C2A29" />\n    <rect x="384" y="176" width="16" height="16" fill="#2C2A29" />\n    <rect x="400" y="176" width="16" height="16" fill="#2C2A29" />\n    <rect x="416" y="176" width="16" height="16" fill="#2C2A29" />\n    <rect x="432" y="176" width="16" height="16" fill="#4A4644" />\n    <rect x="448" y="176" width="16" height="16" fill="#4A4644" />\n    <rect x="160" y="192" width="16" height="16" fill="#4A4644" />\n    <rect x="176" y="192" width="16" height="16" fill="#2C2A29" />\n    <rect x="192" y="192" width="16" height="16" fill="#2C2A29" />\n    <rect x="208" y="192" width="16" height="16" fill="#2C2A29" />\n    <rect x="224" y="192" width="16" height="16" fill="#2C2A29" />\n    <rect x="240" y="192" width="16" height="16" fill="#2C2A29" />\n    <rect x="256" y="192" width="16" height="16" fill="#2C2A29" />\n    <rect x="272" y="192" width="16" height="16" fill="#2C2A29" />\n    <rect x="288" y="192" width="16" height="16" fill="#2C2A29" />\n    <rect x="304" y="192" width="16" height="16" fill="#2C2A29" />\n    <rect x="320" y="192" width="16" height="16" fill="#2C2A29" />\n    <rect x="336" y="192" width="16" height="16" fill="#2C2A29" />\n    <rect x="352" y="192" width="16" height="16" fill="#2C2A29" />\n    <rect x="368" y="192" width="16" height="16" fill="#2C2A29" />\n    <rect x="384" y="192" width="16" height="16" fill="#2C2A29" />\n    <rect x="400" y="192" width="16" height="16" fill="#2C2A29" />\n    <rect x="416" y="192" width="16" height="16" fill="#2C2A29" />\n    <rect x="432" y="192" width="16" height="16" fill="#2C2A29" />\n    <rect x="448" y="192" width="16" height="16" fill="#2C2A29" />\n    <rect x="464" y="192" width="16" height="16" fill="#4A4644" />\n    <rect x="192" y="208" width="16" height="16" fill="#4A4644" />\n    <rect x="208" y="208" width="16" height="16" fill="#4A4644" />\n    <rect x="224" y="208" width="16" height="16" fill="#4A4644" />\n    <rect x="240" y="208" width="16" height="16" fill="#4A4644" />\n    <rect x="256" y="208" width="16" height="16" fill="#4A4644" />\n    <rect x="272" y="208" width="16" height="16" fill="#D0B49F" />\n    <rect x="288" y="208" width="16" height="16" fill="#D0B49F" />\n    <rect x="304" y="208" width="16" height="16" fill="#D0B49F" />\n    <rect x="320" y="208" width="16" height="16" fill="#D0B49F" />\n    <rect x="336" y="208" width="16" height="16" fill="#D0B49F" />\n    <rect x="352" y="208" width="16" height="16" fill="#D0B49F" />\n    <rect x="368" y="208" width="16" height="16" fill="#4A4644" />\n    <rect x="384" y="208" width="16" height="16" fill="#4A4644" />\n    <rect x="400" y="208" width="16" height="16" fill="#4A4644" />\n    <rect x="416" y="208" width="16" height="16" fill="#4A4644" />\n    <rect x="432" y="208" width="16" height="16" fill="#4A4644" />\n    <rect x="256" y="224" width="16" height="16" fill="#A88D79" />\n    <rect x="272" y="224" width="16" height="16" fill="#D0B49F" />\n    <rect x="288" y="224" width="16" height="16" fill="#D0B49F" />\n    <rect x="304" y="224" width="16" height="16" fill="#D0B49F" />\n    <rect x="320" y="224" width="16" height="16" fill="#D0B49F" />\n    <rect x="336" y="224" width="16" height="16" fill="#D0B49F" />\n    <rect x="352" y="224" width="16" height="16" fill="#D0B49F" />\n    <rect x="368" y="224" width="16" height="16" fill="#A88D79" />\n    <rect x="256" y="240" width="16" height="16" fill="#A88D79" />\n    <rect x="272" y="240" width="16" height="16" fill="#D0B49F" />\n    <rect x="288" y="240" width="16" height="16" fill="#3E2723" />\n    <rect x="304" y="240" width="16" height="16" fill="#3E2723" />\n    <rect x="320" y="240" width="16" height="16" fill="#D0B49F" />\n    <rect x="336" y="240" width="16" height="16" fill="#3E2723" />\n    <rect x="352" y="240" width="16" height="16" fill="#3E2723" />\n    <rect x="368" y="240" width="16" height="16" fill="#A88D79" />\n    <rect x="256" y="256" width="16" height="16" fill="#A88D79" />\n    <rect x="272" y="256" width="16" height="16" fill="#D0B49F" />\n    <rect x="288" y="256" width="16" height="16" fill="#D0B49F" />\n    <rect x="304" y="256" width="16" height="16" fill="#D0B49F" />\n    <rect x="320" y="256" width="16" height="16" fill="#D0B49F" />\n    <rect x="336" y="256" width="16" height="16" fill="#D0B49F" />\n    <rect x="352" y="256" width="16" height="16" fill="#D0B49F" />\n    <rect x="368" y="256" width="16" height="16" fill="#A88D79" />\n    <rect x="256" y="272" width="16" height="16" fill="#A88D79" />\n    <rect x="272" y="272" width="16" height="16" fill="#3E2723" />\n    <rect x="288" y="272" width="16" height="16" fill="#D0B49F" />\n    <rect x="304" y="272" width="16" height="16" fill="#D0B49F" />\n    <rect x="320" y="272" width="16" height="16" fill="#D0B49F" />\n    <rect x="336" y="272" width="16" height="16" fill="#D0B49F" />\n    <rect x="352" y="272" width="16" height="16" fill="#3E2723" />\n    <rect x="368" y="272" width="16" height="16" fill="#A88D79" />\n    <rect x="272" y="288" width="16" height="16" fill="#A88D79" />\n    <rect x="288" y="288" width="16" height="16" fill="#3E2723" />\n    <rect x="304" y="288" width="16" height="16" fill="#3E2723" />\n    <rect x="320" y="288" width="16" height="16" fill="#3E2723" />\n    <rect x="336" y="288" width="16" height="16" fill="#3E2723" />\n    <rect x="352" y="288" width="16" height="16" fill="#A88D79" />\n    <rect x="80" y="304" width="16" height="16" fill="#5C4033" />\n    <rect x="96" y="304" width="16" height="16" fill="#5C4033" />\n    <rect x="112" y="304" width="16" height="16" fill="#5C4033" />\n    <rect x="128" y="304" width="16" height="16" fill="#5C4033" />\n    <rect x="144" y="304" width="16" height="16" fill="#5C4033" />\n    <rect x="160" y="304" width="16" height="16" fill="#5C4033" />\n    <rect x="176" y="304" width="16" height="16" fill="#5C4033" />\n    <rect x="192" y="304" width="16" height="16" fill="#5C4033" />\n    <rect x="208" y="304" width="16" height="16" fill="#5C4033" />\n    <rect x="224" y="304" width="16" height="16" fill="#5C4033" />\n    <rect x="240" y="304" width="16" height="16" fill="#5C4033" />\n    <rect x="256" y="304" width="16" height="16" fill="#5C4033" />\n    <rect x="272" y="304" width="16" height="16" fill="#C2B280" />\n    <rect x="288" y="304" width="16" height="16" fill="#C2B280" />\n    <rect x="304" y="304" width="16" height="16" fill="#C2B280" />\n    <rect x="320" y="304" width="16" height="16" fill="#C2B280" />\n    <rect x="336" y="304" width="16" height="16" fill="#C2B280" />\n    <rect x="352" y="304" width="16" height="16" fill="#C2B280" />\n    <rect x="368" y="304" width="16" height="16" fill="#5C4033" />\n    <rect x="384" y="304" width="16" height="16" fill="#5C4033" />\n    <rect x="400" y="304" width="16" height="16" fill="#5C4033" />\n    <rect x="416" y="304" width="16" height="16" fill="#5C4033" />\n    <rect x="432" y="304" width="16" height="16" fill="#5C4033" />\n    <rect x="448" y="304" width="16" height="16" fill="#5C4033" />\n    <rect x="464" y="304" width="16" height="16" fill="#5C4033" />\n    <rect x="480" y="304" width="16" height="16" fill="#5C4033" />\n    <rect x="496" y="304" width="16" height="16" fill="#5C4033" />\n    <rect x="512" y="304" width="16" height="16" fill="#5C4033" />\n    <rect x="528" y="304" width="16" height="16" fill="#5C4033" />\n    <rect x="544" y="304" width="16" height="16" fill="#5C4033" />\n    <rect x="80" y="320" width="16" height="16" fill="#3A2820" />\n    <rect x="96" y="320" width="16" height="16" fill="#3A2820" />\n    <rect x="112" y="320" width="16" height="16" fill="#5C4033" />\n    <rect x="128" y="320" width="16" height="16" fill="#5C4033" />\n    <rect x="144" y="320" width="16" height="16" fill="#5C4033" />\n    <rect x="160" y="320" width="16" height="16" fill="#5C4033" />\n    <rect x="176" y="320" width="16" height="16" fill="#5C4033" />\n    <rect x="192" y="320" width="16" height="16" fill="#5C4033" />\n    <rect x="208" y="320" width="16" height="16" fill="#5C4033" />\n    <rect x="224" y="320" width="16" height="16" fill="#5C4033" />\n    <rect x="240" y="320" width="16" height="16" fill="#5C4033" />\n    <rect x="256" y="320" width="16" height="16" fill="#5C4033" />\n    <rect x="272" y="320" width="16" height="16" fill="#C2B280" />\n    <rect x="288" y="320" width="16" height="16" fill="#C2B280" />\n    <rect x="304" y="320" width="16" height="16" fill="#C2B280" />\n    <rect x="320" y="320" width="16" height="16" fill="#C2B280" />\n    <rect x="336" y="320" width="16" height="16" fill="#C2B280" />\n    <rect x="352" y="320" width="16" height="16" fill="#C2B280" />\n    <rect x="368" y="320" width="16" height="16" fill="#5C4033" />\n    <rect x="384" y="320" width="16" height="16" fill="#5C4033" />\n    <rect x="400" y="320" width="16" height="16" fill="#5C4033" />\n    <rect x="416" y="320" width="16" height="16" fill="#5C4033" />\n    <rect x="432" y="320" width="16" height="16" fill="#5C4033" />\n    <rect x="448" y="320" width="16" height="16" fill="#5C4033" />\n    <rect x="464" y="320" width="16" height="16" fill="#5C4033" />\n    <rect x="480" y="320" width="16" height="16" fill="#5C4033" />\n    <rect x="496" y="320" width="16" height="16" fill="#3A2820" />\n    <rect x="512" y="320" width="16" height="16" fill="#3A2820" />\n    <rect x="528" y="320" width="16" height="16" fill="#3A2820" />\n    <rect x="544" y="320" width="16" height="16" fill="#5C4033" />\n    <rect x="96" y="336" width="16" height="16" fill="#EEDC9A" />\n    <rect x="112" y="336" width="16" height="16" fill="#EEDC9A" />\n    <rect x="128" y="336" width="16" height="16" fill="#EEDC9A" />\n    <rect x="144" y="336" width="16" height="16" fill="#EEDC9A" />\n    <rect x="160" y="336" width="16" height="16" fill="#EEDC9A" />\n    <rect x="208" y="336" width="16" height="16" fill="#EEDC9A" />\n    <rect x="224" y="336" width="16" height="16" fill="#EEDC9A" />\n    <rect x="240" y="336" width="16" height="16" fill="#2E5A44" />\n    <rect x="256" y="336" width="16" height="16" fill="#407A5E" />\n    <rect x="272" y="336" width="16" height="16" fill="#407A5E" />\n    <rect x="288" y="336" width="16" height="16" fill="#407A5E" />\n    <rect x="304" y="336" width="16" height="16" fill="#407A5E" />\n    <rect x="320" y="336" width="16" height="16" fill="#407A5E" />\n    <rect x="336" y="336" width="16" height="16" fill="#407A5E" />\n    <rect x="352" y="336" width="16" height="16" fill="#2E5A44" />\n    <rect x="368" y="336" width="16" height="16" fill="#EEDC9A" />\n    <rect x="384" y="336" width="16" height="16" fill="#EEDC9A" />\n    <rect x="432" y="336" width="16" height="16" fill="#EEDC9A" />\n    <rect x="448" y="336" width="16" height="16" fill="#EEDC9A" />\n    <rect x="464" y="336" width="16" height="16" fill="#EEDC9A" />\n    <rect x="480" y="336" width="16" height="16" fill="#EEDC9A" />\n    <rect x="496" y="336" width="16" height="16" fill="#EEDC9A" />\n    <rect x="96" y="352" width="16" height="16" fill="#EEDC9A" />\n    <rect x="112" y="352" width="16" height="16" fill="#EEDC9A" />\n    <rect x="128" y="352" width="16" height="16" fill="#EEDC9A" />\n    <rect x="144" y="352" width="16" height="16" fill="#EEDC9A" />\n    <rect x="160" y="352" width="16" height="16" fill="#EEDC9A" />\n    <rect x="176" y="352" width="16" height="16" fill="#EEDC9A" />\n    <rect x="192" y="352" width="16" height="16" fill="#EEDC9A" />\n    <rect x="224" y="352" width="16" height="16" fill="#2E5A44" />\n    <rect x="240" y="352" width="16" height="16" fill="#407A5E" />\n    <rect x="256" y="352" width="16" height="16" fill="#407A5E" />\n    <rect x="272" y="352" width="16" height="16" fill="#407A5E" />\n    <rect x="288" y="352" width="16" height="16" fill="#407A5E" />\n    <rect x="304" y="352" width="16" height="16" fill="#407A5E" />\n    <rect x="320" y="352" width="16" height="16" fill="#407A5E" />\n    <rect x="336" y="352" width="16" height="16" fill="#407A5E" />\n    <rect x="352" y="352" width="16" height="16" fill="#407A5E" />\n    <rect x="368" y="352" width="16" height="16" fill="#2E5A44" />\n    <rect x="400" y="352" width="16" height="16" fill="#EEDC9A" />\n    <rect x="416" y="352" width="16" height="16" fill="#EEDC9A" />\n    <rect x="432" y="352" width="16" height="16" fill="#EEDC9A" />\n    <rect x="448" y="352" width="16" height="16" fill="#EEDC9A" />\n    <rect x="464" y="352" width="16" height="16" fill="#EEDC9A" />\n    <rect x="480" y="352" width="16" height="16" fill="#EEDC9A" />\n    <rect x="496" y="352" width="16" height="16" fill="#EEDC9A" />\n    <rect x="96" y="368" width="16" height="16" fill="#EEDC9A" />\n    <rect x="112" y="368" width="16" height="16" fill="#EEDC9A" />\n    <rect x="128" y="368" width="16" height="16" fill="#EEDC9A" />\n    <rect x="176" y="368" width="16" height="16" fill="#EEDC9A" />\n    <rect x="192" y="368" width="16" height="16" fill="#EEDC9A" />\n    <rect x="208" y="368" width="16" height="16" fill="#EEDC9A" />\n    <rect x="224" y="368" width="16" height="16" fill="#C2B280" />\n    <rect x="240" y="368" width="16" height="16" fill="#2E5A44" />\n    <rect x="256" y="368" width="16" height="16" fill="#407A5E" />\n    <rect x="272" y="368" width="16" height="16" fill="#407A5E" />\n    <rect x="288" y="368" width="16" height="16" fill="#407A5E" />\n    <rect x="304" y="368" width="16" height="16" fill="#407A5E" />\n    <rect x="320" y="368" width="16" height="16" fill="#407A5E" />\n    <rect x="336" y="368" width="16" height="16" fill="#407A5E" />\n    <rect x="352" y="368" width="16" height="16" fill="#407A5E" />\n    <rect x="368" y="368" width="16" height="16" fill="#407A5E" />\n    <rect x="384" y="368" width="16" height="16" fill="#2E5A44" />\n    <rect x="400" y="368" width="16" height="16" fill="#C2B280" />\n    <rect x="416" y="368" width="16" height="16" fill="#EEDC9A" />\n    <rect x="432" y="368" width="16" height="16" fill="#EEDC9A" />\n    <rect x="480" y="368" width="16" height="16" fill="#EEDC9A" />\n    <rect x="496" y="368" width="16" height="16" fill="#EEDC9A" />\n    <rect x="512" y="368" width="16" height="16" fill="#EEDC9A" />\n    <rect x="96" y="384" width="16" height="16" fill="#EEDC9A" />\n    <rect x="208" y="384" width="16" height="16" fill="#C2B280" />\n    <rect x="224" y="384" width="16" height="16" fill="#2E5A44" />\n    <rect x="240" y="384" width="16" height="16" fill="#407A5E" />\n    <rect x="256" y="384" width="16" height="16" fill="#407A5E" />\n    <rect x="272" y="384" width="16" height="16" fill="#407A5E" />\n    <rect x="288" y="384" width="16" height="16" fill="#407A5E" />\n    <rect x="368" y="384" width="16" height="16" fill="#407A5E" />\n    <rect x="384" y="384" width="16" height="16" fill="#407A5E" />\n    <rect x="400" y="384" width="16" height="16" fill="#2E5A44" />\n    <rect x="416" y="384" width="16" height="16" fill="#C2B280" />\n    <rect x="512" y="384" width="16" height="16" fill="#EEDC9A" />\n    <rect x="224" y="400" width="16" height="16" fill="#2E5A44" />\n    <rect x="240" y="400" width="16" height="16" fill="#407A5E" />\n    <rect x="256" y="400" width="16" height="16" fill="#407A5E" />\n    <rect x="272" y="400" width="16" height="16" fill="#407A5E" />\n    <rect x="384" y="400" width="16" height="16" fill="#407A5E" />\n    <rect x="400" y="400" width="16" height="16" fill="#2E5A44" />\n    <rect x="224" y="416" width="16" height="16" fill="#2E5A44" />\n    <rect x="240" y="416" width="16" height="16" fill="#407A5E" />\n    <rect x="256" y="416" width="16" height="16" fill="#407A5E" />\n    <rect x="272" y="416" width="16" height="16" fill="#407A5E" />\n    <rect x="384" y="416" width="16" height="16" fill="#407A5E" />\n    <rect x="400" y="416" width="16" height="16" fill="#2E5A44" />\n    <rect x="224" y="432" width="16" height="16" fill="#C2B280" />\n    <rect x="240" y="432" width="16" height="16" fill="#C2B280" />\n    <rect x="256" y="432" width="16" height="16" fill="#C2B280" />\n    <rect x="272" y="432" width="16" height="16" fill="#C2B280" />\n    <rect x="288" y="432" width="16" height="16" fill="#C2B280" />\n    <rect x="368" y="432" width="16" height="16" fill="#C2B280" />\n    <rect x="384" y="432" width="16" height="16" fill="#C2B280" />\n    <rect x="400" y="432" width="16" height="16" fill="#C2B280" />\n    <rect x="224" y="448" width="16" height="16" fill="#543D2A" />\n    <rect x="240" y="448" width="16" height="16" fill="#543D2A" />\n    <rect x="256" y="448" width="16" height="16" fill="#543D2A" />\n    <rect x="272" y="448" width="16" height="16" fill="#543D2A" />\n    <rect x="288" y="448" width="16" height="16" fill="#543D2A" />\n    <rect x="304" y="448" width="16" height="16" fill="#543D2A" />\n    <rect x="320" y="448" width="16" height="16" fill="#543D2A" />\n    <rect x="336" y="448" width="16" height="16" fill="#543D2A" />\n    <rect x="352" y="448" width="16" height="16" fill="#543D2A" />\n    <rect x="368" y="448" width="16" height="16" fill="#543D2A" />\n    <rect x="384" y="448" width="16" height="16" fill="#543D2A" />\n    <rect x="400" y="448" width="16" height="16" fill="#543D2A" />\n    <rect x="224" y="464" width="16" height="16" fill="#543D2A" />\n    <rect x="240" y="464" width="16" height="16" fill="#543D2A" />\n    <rect x="256" y="464" width="16" height="16" fill="#543D2A" />\n    <rect x="272" y="464" width="16" height="16" fill="#543D2A" />\n    <rect x="288" y="464" width="16" height="16" fill="#543D2A" />\n    <rect x="304" y="464" width="16" height="16" fill="#543D2A" />\n    <rect x="320" y="464" width="16" height="16" fill="#543D2A" />\n    <rect x="336" y="464" width="16" height="16" fill="#543D2A" />\n    <rect x="352" y="464" width="16" height="16" fill="#543D2A" />\n    <rect x="368" y="464" width="16" height="16" fill="#543D2A" />\n    <rect x="384" y="464" width="16" height="16" fill="#543D2A" />\n    <rect x="400" y="464" width="16" height="16" fill="#543D2A" />\n    <rect x="224" y="480" width="16" height="16" fill="#543D2A" />\n    <rect x="240" y="480" width="16" height="16" fill="#543D2A" />\n    <rect x="256" y="480" width="16" height="16" fill="#543D2A" />\n    <rect x="272" y="480" width="16" height="16" fill="#543D2A" />\n    <rect x="288" y="480" width="16" height="16" fill="#543D2A" />\n    <rect x="336" y="480" width="16" height="16" fill="#543D2A" />\n    <rect x="352" y="480" width="16" height="16" fill="#543D2A" />\n    <rect x="368" y="480" width="16" height="16" fill="#543D2A" />\n    <rect x="384" y="480" width="16" height="16" fill="#543D2A" />\n    <rect x="400" y="480" width="16" height="16" fill="#543D2A" />\n    <rect x="224" y="496" width="16" height="16" fill="#3A291A" />\n    <rect x="240" y="496" width="16" height="16" fill="#3A291A" />\n    <rect x="256" y="496" width="16" height="16" fill="#3A291A" />\n    <rect x="272" y="496" width="16" height="16" fill="#3A291A" />\n    <rect x="288" y="496" width="16" height="16" fill="#3A291A" />\n    <rect x="336" y="496" width="16" height="16" fill="#3A291A" />\n    <rect x="352" y="496" width="16" height="16" fill="#3A291A" />\n    <rect x="368" y="496" width="16" height="16" fill="#3A291A" />\n    <rect x="384" y="496" width="16" height="16" fill="#3A291A" />\n    <rect x="400" y="496" width="16" height="16" fill="#3A291A" />\n    <rect x="224" y="512" width="16" height="16" fill="#EEDC9A" />\n    <rect x="240" y="512" width="16" height="16" fill="#EEDC9A" />\n    <rect x="256" y="512" width="16" height="16" fill="#EEDC9A" />\n    <rect x="272" y="512" width="16" height="16" fill="#EEDC9A" />\n    <rect x="352" y="512" width="16" height="16" fill="#EEDC9A" />\n    <rect x="368" y="512" width="16" height="16" fill="#EEDC9A" />\n    <rect x="384" y="512" width="16" height="16" fill="#EEDC9A" />\n    <rect x="400" y="512" width="16" height="16" fill="#EEDC9A" />\n    <rect x="208" y="528" width="16" height="16" fill="#EEDC9A" />\n    <rect x="224" y="528" width="16" height="16" fill="#EEDC9A" />\n    <rect x="240" y="528" width="16" height="16" fill="#EEDC9A" />\n    <rect x="256" y="528" width="16" height="16" fill="#EEDC9A" />\n    <rect x="272" y="528" width="16" height="16" fill="#EEDC9A" />\n    <rect x="352" y="528" width="16" height="16" fill="#EEDC9A" />\n    <rect x="368" y="528" width="16" height="16" fill="#EEDC9A" />\n    <rect x="384" y="528" width="16" height="16" fill="#EEDC9A" />\n    <rect x="400" y="528" width="16" height="16" fill="#EEDC9A" />\n    <rect x="416" y="528" width="16" height="16" fill="#EEDC9A" />\n    <g>\n      <animate attributeName="opacity" values="1; 0.6; 1" dur="2s" repeatCount="indefinite" />\n      <rect x="304" y="384" width="16" height="16" fill="#A85072" />\n      <rect x="320" y="384" width="16" height="16" fill="#E182A4" />\n      <rect x="336" y="384" width="16" height="16" fill="#E182A4" />\n      <rect x="352" y="384" width="16" height="16" fill="#A85072" />\n      <rect x="288" y="400" width="16" height="16" fill="#E182A4" />\n      <rect x="304" y="400" width="16" height="16" fill="#E182A4" />\n      <rect x="320" y="400" width="16" height="16" fill="#A85072" />\n      <rect x="336" y="400" width="16" height="16" fill="#A85072" />\n      <rect x="352" y="400" width="16" height="16" fill="#E182A4" />\n      <rect x="368" y="400" width="16" height="16" fill="#E182A4" />\n      <rect x="288" y="416" width="16" height="16" fill="#E182A4" />\n      <rect x="304" y="416" width="16" height="16" fill="#E182A4" />\n      <rect x="320" y="416" width="16" height="16" fill="#A85072" />\n      <rect x="336" y="416" width="16" height="16" fill="#A85072" />\n      <rect x="352" y="416" width="16" height="16" fill="#E182A4" />\n      <rect x="368" y="416" width="16" height="16" fill="#E182A4" />\n      <rect x="304" y="432" width="16" height="16" fill="#A85072" />\n      <rect x="320" y="432" width="16" height="16" fill="#A85072" />\n      <rect x="336" y="432" width="16" height="16" fill="#A85072" />\n      <rect x="352" y="432" width="16" height="16" fill="#A85072" />\n    </g>\n  </g>\n</svg>