<svg viewBox="0 0 1164 516" xmlns="http://www.w3.org/2000/svg" shape-rendering="crispEdges">\n  <rect x="216" y="48" width="12" height="12" fill="#5C4033" />\n  <rect x="228" y="48" width="12" height="12" fill="#5C4033" />\n  <rect x="240" y="48" width="12" height="12" fill="#3A2820" />\n  <rect x="216" y="60" width="12" height="12" fill="#5C4033" />\n  <rect x="228" y="60" width="12" height="12" fill="#5C4033" />\n  <rect x="240" y="60" width="12" height="12" fill="#3A2820" />\n  <rect x="216" y="72" width="12" height="12" fill="#5C4033" />\n  <rect x="228" y="72" width="12" height="12" fill="#5C4033" />\n  <rect x="240" y="72" width="12" height="12" fill="#3A2820" />\n  <rect x="216" y="84" width="12" height="12" fill="#5C4033" />\n  <rect x="228" y="84" width="12" height="12" fill="#5C4033" />\n  <rect x="240" y="84" width="12" height="12" fill="#3A2820" />\n  <rect x="216" y="96" width="12" height="12" fill="#5C4033" />\n  <rect x="228" y="96" width="12" height="12" fill="#5C4033" />\n  <rect x="240" y="96" width="12" height="12" fill="#3A2820" />\n  <rect x="216" y="108" width="12" height="12" fill="#5C4033" />\n  <rect x="228" y="108" width="12" height="12" fill="#5C4033" />\n  <rect x="240" y="108" width="12" height="12" fill="#3A2820" />\n  <rect x="216" y="120" width="12" height="12" fill="#5C4033" />\n  <rect x="228" y="120" width="12" height="12" fill="#5C4033" />\n  <rect x="240" y="120" width="12" height="12" fill="#3A2820" />\n  <rect x="216" y="132" width="12" height="12" fill="#5C4033" />\n  <rect x="228" y="132" width="12" height="12" fill="#5C4033" />\n  <rect x="240" y="132" width="12" height="12" fill="#3A2820" />\n  <rect x="216" y="144" width="12" height="12" fill="#5C4033" />\n  <rect x="228" y="144" width="12" height="12" fill="#5C4033" />\n  <rect x="240" y="144" width="12" height="12" fill="#3A2820" />\n  <rect x="216" y="156" width="12" height="12" fill="#5C4033" />\n  <rect x="228" y="156" width="12" height="12" fill="#5C4033" />\n  <rect x="240" y="156" width="12" height="12" fill="#3A2820" />\n  <rect x="216" y="168" width="12" height="12" fill="#5C4033" />\n  <rect x="228" y="168" width="12" height="12" fill="#5C4033" />\n  <rect x="240" y="168" width="12" height="12" fill="#3A2820" />\n  <rect x="216" y="180" width="12" height="12" fill="#5C4033" />\n  <rect x="228" y="180" width="12" height="12" fill="#5C4033" />\n  <rect x="240" y="180" width="12" height="12" fill="#3A2820" />\n  <rect x="216" y="192" width="12" height="12" fill="#5C4033" />\n  <rect x="228" y="192" width="12" height="12" fill="#5C4033" />\n  <rect x="240" y="192" width="12" height="12" fill="#3A2820" />\n  <rect x="216" y="204" width="12" height="12" fill="#5C4033" />\n  <rect x="228" y="204" width="12" height="12" fill="#5C4033" />\n  <rect x="240" y="204" width="12" height="12" fill="#3A2820" />\n  <rect x="216" y="216" width="12" height="12" fill="#5C4033" />\n  <rect x="228" y="216" width="12" height="12" fill="#5C4033" />\n  <rect x="240" y="216" width="12" height="12" fill="#3A2820" />\n  <rect x="216" y="228" width="12" height="12" fill="#5C4033" />\n  <rect x="228" y="228" width="12" height="12" fill="#5C4033" />\n  <rect x="240" y="228" width="12" height="12" fill="#3A2820" />\n  <rect x="216" y="240" width="12" height="12" fill="#5C4033" />\n  <rect x="228" y="240" width="12" height="12" fill="#5C4033" />\n  <rect x="240" y="240" width="12" height="12" fill="#3A2820" />\n  <rect x="216" y="252" width="12" height="12" fill="#5C4033" />\n  <rect x="228" y="252" width="12" height="12" fill="#5C4033" />\n  <rect x="240" y="252" width="12" height="12" fill="#3A2820" />\n  <rect x="216" y="264" width="12" height="12" fill="#5C4033" />\n  <rect x="228" y="264" width="12" height="12" fill="#5C4033" />\n  <rect x="240" y="264" width="12" height="12" fill="#3A2820" />\n  <rect x="216" y="276" width="12" height="12" fill="#5C4033" />\n  <rect x="228" y="276" width="12" height="12" fill="#5C4033" />\n  <rect x="240" y="276" width="12" height="12" fill="#3A2820" />\n  <rect x="216" y="288" width="12" height="12" fill="#5C4033" />\n  <rect x="228" y="288" width="12" height="12" fill="#5C4033" />\n  <rect x="240" y="288" width="12" height="12" fill="#3A2820" />\n  <rect x="216" y="300" width="12" height="12" fill="#5C4033" />\n  <rect x="228" y="300" width="12" height="12" fill="#5C4033" />\n  <rect x="240" y="300" width="12" height="12" fill="#3A2820" />\n  <rect x="216" y="312" width="12" height="12" fill="#5C4033" />\n  <rect x="228" y="312" width="12" height="12" fill="#5C4033" />\n  <rect x="240" y="312" width="12" height="12" fill="#3A2820" />\n  <rect x="216" y="324" width="12" height="12" fill="#5C4033" />\n  <rect x="228" y="324" width="12" height="12" fill="#5C4033" />\n  <rect x="240" y="324" width="12" height="12" fill="#3A2820" />\n  <rect x="216" y="336" width="12" height="12" fill="#5C4033" />\n  <rect x="228" y="336" width="12" height="12" fill="#5C4033" />\n  <rect x="240" y="336" width="12" height="12" fill="#3A2820" />\n  <rect x="216" y="348" width="12" height="12" fill="#5C4033" />\n  <rect x="228" y="348" width="12" height="12" fill="#5C4033" />\n  <rect x="240" y="348" width="12" height="12" fill="#3A2820" />\n  <rect x="216" y="360" width="12" height="12" fill="#5C4033" />\n  <rect x="228" y="360" width="12" height="12" fill="#5C4033" />\n  <rect x="240" y="360" width="12" height="12" fill="#3A2820" />\n  <rect x="216" y="372" width="12" height="12" fill="#5C4033" />\n  <rect x="228" y="372" width="12" height="12" fill="#5C4033" />\n  <rect x="240" y="372" width="12" height="12" fill="#3A2820" />\n  <rect x="216" y="384" width="12" height="12" fill="#5C4033" />\n  <rect x="228" y="384" width="12" height="12" fill="#5C4033" />\n  <rect x="240" y="384" width="12" height="12" fill="#3A2820" />\n  <rect x="216" y="396" width="12" height="12" fill="#5C4033" />\n  <rect x="228" y="396" width="12" height="12" fill="#5C4033" />\n  <rect x="240" y="396" width="12" height="12" fill="#3A2820" />\n  <rect x="216" y="408" width="12" height="12" fill="#5C4033" />\n  <rect x="228" y="408" width="12" height="12" fill="#5C4033" />\n  <rect x="240" y="408" width="12" height="12" fill="#3A2820" />\n  <rect x="216" y="420" width="12" height="12" fill="#5C4033" />\n  <rect x="228" y="420" width="12" height="12" fill="#5C4033" />\n  <rect x="240" y="420" width="12" height="12" fill="#3A2820" />\n  <rect x="216" y="432" width="12" height="12" fill="#5C4033" />\n  <rect x="228" y="432" width="12" height="12" fill="#5C4033" />\n  <rect x="240" y="432" width="12" height="12" fill="#3A2820" />\n  <rect x="216" y="444" width="12" height="12" fill="#5C4033" />\n  <rect x="228" y="444" width="12" height="12" fill="#5C4033" />\n  <rect x="240" y="444" width="12" height="12" fill="#3A2820" />\n  <rect x="216" y="456" width="12" height="12" fill="#5C4033" />\n  <rect x="228" y="456" width="12" height="12" fill="#5C4033" />\n  <rect x="240" y="456" width="12" height="12" fill="#3A2820" />\n  <g transform="rotate(14, 240.0, 258.0)">\n  <rect x="216" y="48" width="12" height="12" fill="#4A4644" />\n  <rect x="228" y="48" width="12" height="12" fill="#4A4644" />\n  <rect x="240" y="48" width="12" height="12" fill="#4A4644" />\n  <rect x="204" y="60" width="12" height="12" fill="#4A4644" />\n  <rect x="216" y="60" width="12" height="12" fill="#2C2A29" />\n  <rect x="228" y="60" width="12" height="12" fill="#2C2A29" />\n  <rect x="240" y="60" width="12" height="12" fill="#2C2A29" />\n  <rect x="252" y="60" width="12" height="12" fill="#4A4644" />\n  <rect x="264" y="60" width="12" height="12" fill="#4A4644" />\n  <rect x="192" y="72" width="12" height="12" fill="#4A4644" />\n  <rect x="204" y="72" width="12" height="12" fill="#2C2A29" />\n  <rect x="216" y="72" width="12" height="12" fill="#2C2A29" />\n  <rect x="228" y="72" width="12" height="12" fill="#2C2A29" />\n  <rect x="240" y="72" width="12" height="12" fill="#2C2A29" />\n  <rect x="252" y="72" width="12" height="12" fill="#2C2A29" />\n  <rect x="264" y="72" width="12" height="12" fill="#2C2A29" />\n  <rect x="276" y="72" width="12" height="12" fill="#4A4644" />\n  <rect x="180" y="84" width="12" height="12" fill="#4A4644" />\n  <rect x="192" y="84" width="12" height="12" fill="#2C2A29" />\n  <rect x="204" y="84" width="12" height="12" fill="#2C2A29" />\n  <rect x="216" y="84" width="12" height="12" fill="#2C2A29" />\n  <rect x="228" y="84" width="12" height="12" fill="#2C2A29" />\n  <rect x="240" y="84" width="12" height="12" fill="#2C2A29" />\n  <rect x="252" y="84" width="12" height="12" fill="#2C2A29" />\n  <rect x="264" y="84" width="12" height="12" fill="#2C2A29" />\n  <rect x="276" y="84" width="12" height="12" fill="#4A4644" />\n  <rect x="168" y="96" width="12" height="12" fill="#4A4644" />\n  <rect x="180" y="96" width="12" height="12" fill="#2C2A29" />\n  <rect x="192" y="96" width="12" height="12" fill="#2C2A29" />\n  <rect x="204" y="96" width="12" height="12" fill="#2C2A29" />\n  <rect x="216" y="96" width="12" height="12" fill="#2C2A29" />\n  <rect x="228" y="96" width="12" height="12" fill="#2C2A29" />\n  <rect x="240" y="96" width="12" height="12" fill="#2C2A29" />\n  <rect x="252" y="96" width="12" height="12" fill="#2C2A29" />\n  <rect x="264" y="96" width="12" height="12" fill="#2C2A29" />\n  <rect x="276" y="96" width="12" height="12" fill="#2C2A29" />\n  <rect x="288" y="96" width="12" height="12" fill="#4A4644" />\n  <rect x="168" y="108" width="12" height="12" fill="#4A4644" />\n  <rect x="180" y="108" width="12" height="12" fill="#2C2A29" />\n  <rect x="192" y="108" width="12" height="12" fill="#2C2A29" />\n  <rect x="204" y="108" width="12" height="12" fill="#2C2A29" />\n  <rect x="216" y="108" width="12" height="12" fill="#2C2A29" />\n  <rect x="228" y="108" width="12" height="12" fill="#2C2A29" />\n  <rect x="240" y="108" width="12" height="12" fill="#2C2A29" />\n  <rect x="252" y="108" width="12" height="12" fill="#2C2A29" />\n  <rect x="264" y="108" width="12" height="12" fill="#2C2A29" />\n  <rect x="276" y="108" width="12" height="12" fill="#2C2A29" />\n  <rect x="288" y="108" width="12" height="12" fill="#4A4644" />\n  <rect x="300" y="108" width="12" height="12" fill="#4A4644" />\n  <rect x="156" y="120" width="12" height="12" fill="#4A4644" />\n  <rect x="168" y="120" width="12" height="12" fill="#2C2A29" />\n  <rect x="180" y="120" width="12" height="12" fill="#2C2A29" />\n  <rect x="192" y="120" width="12" height="12" fill="#2C2A29" />\n  <rect x="204" y="120" width="12" height="12" fill="#2C2A29" />\n  <rect x="216" y="120" width="12" height="12" fill="#2C2A29" />\n  <rect x="228" y="120" width="12" height="12" fill="#2C2A29" />\n  <rect x="240" y="120" width="12" height="12" fill="#2C2A29" />\n  <rect x="252" y="120" width="12" height="12" fill="#2C2A29" />\n  <rect x="264" y="120" width="12" height="12" fill="#2C2A29" />\n  <rect x="276" y="120" width="12" height="12" fill="#2C2A29" />\n  <rect x="288" y="120" width="12" height="12" fill="#2C2A29" />\n  <rect x="300" y="120" width="12" height="12" fill="#2C2A29" />\n  <rect x="312" y="120" width="12" height="12" fill="#4A4644" />\n  <rect x="132" y="132" width="12" height="12" fill="#4A4644" />\n  <rect x="144" y="132" width="12" height="12" fill="#4A4644" />\n  <rect x="156" y="132" width="12" height="12" fill="#2C2A29" />\n  <rect x="168" y="132" width="12" height="12" fill="#2C2A29" />\n  <rect x="180" y="132" width="12" height="12" fill="#2C2A29" />\n  <rect x="192" y="132" width="12" height="12" fill="#2C2A29" />\n  <rect x="204" y="132" width="12" height="12" fill="#2C2A29" />\n  <rect x="216" y="132" width="12" height="12" fill="#2C2A29" />\n  <rect x="228" y="132" width="12" height="12" fill="#2C2A29" />\n  <rect x="240" y="132" width="12" height="12" fill="#2C2A29" />\n  <rect x="252" y="132" width="12" height="12" fill="#2C2A29" />\n  <rect x="264" y="132" width="12" height="12" fill="#2C2A29" />\n  <rect x="276" y="132" width="12" height="12" fill="#2C2A29" />\n  <rect x="288" y="132" width="12" height="12" fill="#2C2A29" />\n  <rect x="300" y="132" width="12" height="12" fill="#2C2A29" />\n  <rect x="312" y="132" width="12" height="12" fill="#2C2A29" />\n  <rect x="324" y="132" width="12" height="12" fill="#4A4644" />\n  <rect x="336" y="132" width="12" height="12" fill="#4A4644" />\n  <rect x="120" y="144" width="12" height="12" fill="#4A4644" />\n  <rect x="132" y="144" width="12" height="12" fill="#2C2A29" />\n  <rect x="144" y="144" width="12" height="12" fill="#2C2A29" />\n  <rect x="156" y="144" width="12" height="12" fill="#2C2A29" />\n  <rect x="168" y="144" width="12" height="12" fill="#2C2A29" />\n  <rect x="180" y="144" width="12" height="12" fill="#2C2A29" />\n  <rect x="192" y="144" width="12" height="12" fill="#2C2A29" />\n  <rect x="204" y="144" width="12" height="12" fill="#2C2A29" />\n  <rect x="216" y="144" width="12" height="12" fill="#2C2A29" />\n  <rect x="228" y="144" width="12" height="12" fill="#2C2A29" />\n  <rect x="240" y="144" width="12" height="12" fill="#2C2A29" />\n  <rect x="252" y="144" width="12" height="12" fill="#2C2A29" />\n  <rect x="264" y="144" width="12" height="12" fill="#2C2A29" />\n  <rect x="276" y="144" width="12" height="12" fill="#2C2A29" />\n  <rect x="288" y="144" width="12" height="12" fill="#2C2A29" />\n  <rect x="300" y="144" width="12" height="12" fill="#2C2A29" />\n  <rect x="312" y="144" width="12" height="12" fill="#2C2A29" />\n  <rect x="324" y="144" width="12" height="12" fill="#2C2A29" />\n  <rect x="336" y="144" width="12" height="12" fill="#2C2A29" />\n  <rect x="348" y="144" width="12" height="12" fill="#4A4644" />\n  <rect x="144" y="156" width="12" height="12" fill="#4A4644" />\n  <rect x="156" y="156" width="12" height="12" fill="#4A4644" />\n  <rect x="168" y="156" width="12" height="12" fill="#4A4644" />\n  <rect x="180" y="156" width="12" height="12" fill="#4A4644" />\n  <rect x="192" y="156" width="12" height="12" fill="#4A4644" />\n  <rect x="204" y="156" width="12" height="12" fill="#D0B49F" />\n  <rect x="216" y="156" width="12" height="12" fill="#D0B49F" />\n  <rect x="228" y="156" width="12" height="12" fill="#D0B49F" />\n  <rect x="240" y="156" width="12" height="12" fill="#D0B49F" />\n  <rect x="252" y="156" width="12" height="12" fill="#D0B49F" />\n  <rect x="264" y="156" width="12" height="12" fill="#D0B49F" />\n  <rect x="276" y="156" width="12" height="12" fill="#4A4644" />\n  <rect x="288" y="156" width="12" height="12" fill="#4A4644" />\n  <rect x="300" y="156" width="12" height="12" fill="#4A4644" />\n  <rect x="312" y="156" width="12" height="12" fill="#4A4644" />\n  <rect x="324" y="156" width="12" height="12" fill="#4A4644" />\n  <rect x="192" y="168" width="12" height="12" fill="#A88D79" />\n  <rect x="204" y="168" width="12" height="12" fill="#D0B49F" />\n  <rect x="216" y="168" width="12" height="12" fill="#D0B49F" />\n  <rect x="228" y="168" width="12" height="12" fill="#D0B49F" />\n  <rect x="240" y="168" width="12" height="12" fill="#D0B49F" />\n  <rect x="252" y="168" width="12" height="12" fill="#D0B49F" />\n  <rect x="264" y="168" width="12" height="12" fill="#D0B49F" />\n  <rect x="276" y="168" width="12" height="12" fill="#A88D79" />\n  <rect x="192" y="180" width="12" height="12" fill="#A88D79" />\n  <rect x="204" y="180" width="12" height="12" fill="#D0B49F" />\n  <rect x="216" y="180" width="12" height="12" fill="#3E2723" />\n  <rect x="228" y="180" width="12" height="12" fill="#3E2723" />\n  <rect x="240" y="180" width="12" height="12" fill="#D0B49F" />\n  <rect x="252" y="180" width="12" height="12" fill="#3E2723" />\n  <rect x="264" y="180" width="12" height="12" fill="#3E2723" />\n  <rect x="276" y="180" width="12" height="12" fill="#A88D79" />\n  <rect x="192" y="192" width="12" height="12" fill="#A88D79" />\n  <rect x="204" y="192" width="12" height="12" fill="#D0B49F" />\n  <rect x="216" y="192" width="12" height="12" fill="#D0B49F" />\n  <rect x="228" y="192" width="12" height="12" fill="#D0B49F" />\n  <rect x="240" y="192" width="12" height="12" fill="#D0B49F" />\n  <rect x="252" y="192" width="12" height="12" fill="#D0B49F" />\n  <rect x="264" y="192" width="12" height="12" fill="#D0B49F" />\n  <rect x="276" y="192" width="12" height="12" fill="#A88D79" />\n  <rect x="192" y="204" width="12" height="12" fill="#A88D79" />\n  <rect x="204" y="204" width="12" height="12" fill="#3E2723" />\n  <rect x="216" y="204" width="12" height="12" fill="#D0B49F" />\n  <rect x="228" y="204" width="12" height="12" fill="#D0B49F" />\n  <rect x="240" y="204" width="12" height="12" fill="#D0B49F" />\n  <rect x="252" y="204" width="12" height="12" fill="#D0B49F" />\n  <rect x="264" y="204" width="12" height="12" fill="#3E2723" />\n  <rect x="276" y="204" width="12" height="12" fill="#A88D79" />\n  <rect x="204" y="216" width="12" height="12" fill="#A88D79" />\n  <rect x="216" y="216" width="12" height="12" fill="#3E2723" />\n  <rect x="228" y="216" width="12" height="12" fill="#3E2723" />\n  <rect x="240" y="216" width="12" height="12" fill="#3E2723" />\n  <rect x="252" y="216" width="12" height="12" fill="#3E2723" />\n  <rect x="264" y="216" width="12" height="12" fill="#A88D79" />\n  <rect x="60" y="228" width="12" height="12" fill="#5C4033" />\n  <rect x="72" y="228" width="12" height="12" fill="#5C4033" />\n  <rect x="84" y="228" width="12" height="12" fill="#5C4033" />\n  <rect x="96" y="228" width="12" height="12" fill="#5C4033" />\n  <rect x="108" y="228" width="12" height="12" fill="#5C4033" />\n  <rect x="120" y="228" width="12" height="12" fill="#5C4033" />\n  <rect x="132" y="228" width="12" height="12" fill="#5C4033" />\n  <rect x="144" y="228" width="12" height="12" fill="#5C4033" />\n  <rect x="156" y="228" width="12" height="12" fill="#5C4033" />\n  <rect x="168" y="228" width="12" height="12" fill="#5C4033" />\n  <rect x="180" y="228" width="12" height="12" fill="#5C4033" />\n  <rect x="192" y="228" width="12" height="12" fill="#5C4033" />\n  <rect x="204" y="228" width="12" height="12" fill="#C2B280" />\n  <rect x="216" y="228" width="12" height="12" fill="#C2B280" />\n  <rect x="228" y="228" width="12" height="12" fill="#C2B280" />\n  <rect x="240" y="228" width="12" height="12" fill="#C2B280" />\n  <rect x="252" y="228" width="12" height="12" fill="#C2B280" />\n  <rect x="264" y="228" width="12" height="12" fill="#C2B280" />\n  <rect x="276" y="228" width="12" height="12" fill="#5C4033" />\n  <rect x="288" y="228" width="12" height="12" fill="#5C4033" />\n  <rect x="300" y="228" width="12" height="12" fill="#5C4033" />\n  <rect x="312" y="228" width="12" height="12" fill="#5C4033" />\n  <rect x="324" y="228" width="12" height="12" fill="#5C4033" />\n  <rect x="336" y="228" width="12" height="12" fill="#5C4033" />\n  <rect x="348" y="228" width="12" height="12" fill="#5C4033" />\n  <rect x="360" y="228" width="12" height="12" fill="#5C4033" />\n  <rect x="372" y="228" width="12" height="12" fill="#5C4033" />\n  <rect x="384" y="228" width="12" height="12" fill="#5C4033" />\n  <rect x="396" y="228" width="12" height="12" fill="#5C4033" />\n  <rect x="408" y="228" width="12" height="12" fill="#5C4033" />\n  <rect x="60" y="240" width="12" height="12" fill="#3A2820" />\n  <rect x="72" y="240" width="12" height="12" fill="#3A2820" />\n  <rect x="84" y="240" width="12" height="12" fill="#5C4033" />\n  <rect x="96" y="240" width="12" height="12" fill="#5C4033" />\n  <rect x="108" y="240" width="12" height="12" fill="#5C4033" />\n  <rect x="120" y="240" width="12" height="12" fill="#5C4033" />\n  <rect x="132" y="240" width="12" height="12" fill="#5C4033" />\n  <rect x="144" y="240" width="12" height="12" fill="#5C4033" />\n  <rect x="156" y="240" width="12" height="12" fill="#5C4033" />\n  <rect x="168" y="240" width="12" height="12" fill="#5C4033" />\n  <rect x="180" y="240" width="12" height="12" fill="#5C4033" />\n  <rect x="192" y="240" width="12" height="12" fill="#5C4033" />\n  <rect x="204" y="240" width="12" height="12" fill="#C2B280" />\n  <rect x="216" y="240" width="12" height="12" fill="#C2B280" />\n  <rect x="228" y="240" width="12" height="12" fill="#C2B280" />\n  <rect x="240" y="240" width="12" height="12" fill="#C2B280" />\n  <rect x="252" y="240" width="12" height="12" fill="#C2B280" />\n  <rect x="264" y="240" width="12" height="12" fill="#C2B280" />\n  <rect x="276" y="240" width="12" height="12" fill="#5C4033" />\n  <rect x="288" y="240" width="12" height="12" fill="#5C4033" />\n  <rect x="300" y="240" width="12" height="12" fill="#5C4033" />\n  <rect x="312" y="240" width="12" height="12" fill="#5C4033" />\n  <rect x="324" y="240" width="12" height="12" fill="#5C4033" />\n  <rect x="336" y="240" width="12" height="12" fill="#5C4033" />\n  <rect x="348" y="240" width="12" height="12" fill="#5C4033" />\n  <rect x="360" y="240" width="12" height="12" fill="#5C4033" />\n  <rect x="372" y="240" width="12" height="12" fill="#3A2820" />\n  <rect x="384" y="240" width="12" height="12" fill="#3A2820" />\n  <rect x="396" y="240" width="12" height="12" fill="#3A2820" />\n  <rect x="408" y="240" width="12" height="12" fill="#5C4033" />\n  <rect x="72" y="252" width="12" height="12" fill="#EEDC9A" />\n  <rect x="84" y="252" width="12" height="12" fill="#EEDC9A" />\n  <rect x="96" y="252" width="12" height="12" fill="#EEDC9A" />\n  <rect x="108" y="252" width="12" height="12" fill="#EEDC9A" />\n  <rect x="120" y="252" width="12" height="12" fill="#EEDC9A" />\n  <rect x="156" y="252" width="12" height="12" fill="#EEDC9A" />\n  <rect x="168" y="252" width="12" height="12" fill="#EEDC9A" />\n  <rect x="180" y="252" width="12" height="12" fill="#2E5A44" />\n  <rect x="192" y="252" width="12" height="12" fill="#407A5E" />\n  <rect x="204" y="252" width="12" height="12" fill="#407A5E" />\n  <rect x="216" y="252" width="12" height="12" fill="#407A5E" />\n  <rect x="228" y="252" width="12" height="12" fill="#407A5E" />\n  <rect x="240" y="252" width="12" height="12" fill="#407A5E" />\n  <rect x="252" y="252" width="12" height="12" fill="#407A5E" />\n  <rect x="264" y="252" width="12" height="12" fill="#2E5A44" />\n  <rect x="276" y="252" width="12" height="12" fill="#EEDC9A" />\n  <rect x="288" y="252" width="12" height="12" fill="#EEDC9A" />\n  <rect x="324" y="252" width="12" height="12" fill="#EEDC9A" />\n  <rect x="336" y="252" width="12" height="12" fill="#EEDC9A" />\n  <rect x="348" y="252" width="12" height="12" fill="#EEDC9A" />\n  <rect x="360" y="252" width="12" height="12" fill="#EEDC9A" />\n  <rect x="372" y="252" width="12" height="12" fill="#EEDC9A" />\n  <rect x="72" y="264" width="12" height="12" fill="#EEDC9A" />\n  <rect x="84" y="264" width="12" height="12" fill="#EEDC9A" />\n  <rect x="96" y="264" width="12" height="12" fill="#EEDC9A" />\n  <rect x="108" y="264" width="12" height="12" fill="#EEDC9A" />\n  <rect x="120" y="264" width="12" height="12" fill="#EEDC9A" />\n  <rect x="132" y="264" width="12" height="12" fill="#EEDC9A" />\n  <rect x="144" y="264" width="12" height="12" fill="#EEDC9A" />\n  <rect x="168" y="264" width="12" height="12" fill="#2E5A44" />\n  <rect x="180" y="264" width="12" height="12" fill="#407A5E" />\n  <rect x="192" y="264" width="12" height="12" fill="#407A5E" />\n  <rect x="204" y="264" width="12" height="12" fill="#407A5E" />\n  <rect x="216" y="264" width="12" height="12" fill="#407A5E" />\n  <rect x="228" y="264" width="12" height="12" fill="#407A5E" />\n  <rect x="240" y="264" width="12" height="12" fill="#407A5E" />\n  <rect x="252" y="264" width="12" height="12" fill="#407A5E" />\n  <rect x="264" y="264" width="12" height="12" fill="#407A5E" />\n  <rect x="276" y="264" width="12" height="12" fill="#2E5A44" />\n  <rect x="300" y="264" width="12" height="12" fill="#EEDC9A" />\n  <rect x="312" y="264" width="12" height="12" fill="#EEDC9A" />\n  <rect x="324" y="264" width="12" height="12" fill="#EEDC9A" />\n  <rect x="336" y="264" width="12" height="12" fill="#EEDC9A" />\n  <rect x="348" y="264" width="12" height="12" fill="#EEDC9A" />\n  <rect x="360" y="264" width="12" height="12" fill="#EEDC9A" />\n  <rect x="372" y="264" width="12" height="12" fill="#EEDC9A" />\n  <rect x="72" y="276" width="12" height="12" fill="#EEDC9A" />\n  <rect x="84" y="276" width="12" height="12" fill="#EEDC9A" />\n  <rect x="96" y="276" width="12" height="12" fill="#EEDC9A" />\n  <rect x="132" y="276" width="12" height="12" fill="#EEDC9A" />\n  <rect x="144" y="276" width="12" height="12" fill="#EEDC9A" />\n  <rect x="156" y="276" width="12" height="12" fill="#EEDC9A" />\n  <rect x="168" y="276" width="12" height="12" fill="#C2B280" />\n  <rect x="180" y="276" width="12" height="12" fill="#2E5A44" />\n  <rect x="192" y="276" width="12" height="12" fill="#407A5E" />\n  <rect x="204" y="276" width="12" height="12" fill="#407A5E" />\n  <rect x="216" y="276" width="12" height="12" fill="#407A5E" />\n  <rect x="228" y="276" width="12" height="12" fill="#407A5E" />\n  <rect x="240" y="276" width="12" height="12" fill="#407A5E" />\n  <rect x="252" y="276" width="12" height="12" fill="#407A5E" />\n  <rect x="264" y="276" width="12" height="12" fill="#407A5E" />\n  <rect x="276" y="276" width="12" height="12" fill="#407A5E" />\n  <rect x="288" y="276" width="12" height="12" fill="#2E5A44" />\n  <rect x="300" y="276" width="12" height="12" fill="#C2B280" />\n  <rect x="312" y="276" width="12" height="12" fill="#EEDC9A" />\n  <rect x="324" y="276" width="12" height="12" fill="#EEDC9A" />\n  <rect x="360" y="276" width="12" height="12" fill="#EEDC9A" />\n  <rect x="372" y="276" width="12" height="12" fill="#EEDC9A" />\n  <rect x="384" y="276" width="12" height="12" fill="#EEDC9A" />\n  <rect x="72" y="288" width="12" height="12" fill="#EEDC9A" />\n  <rect x="156" y="288" width="12" height="12" fill="#C2B280" />\n  <rect x="168" y="288" width="12" height="12" fill="#2E5A44" />\n  <rect x="180" y="288" width="12" height="12" fill="#407A5E" />\n  <rect x="192" y="288" width="12" height="12" fill="#407A5E" />\n  <rect x="204" y="288" width="12" height="12" fill="#407A5E" />\n  <rect x="216" y="288" width="12" height="12" fill="#407A5E" />\n  <rect x="228" y="288" width="12" height="12" fill="#A85072" />\n  <rect x="240" y="288" width="12" height="12" fill="#E182A4" />\n  <rect x="252" y="288" width="12" height="12" fill="#E182A4" />\n  <rect x="264" y="288" width="12" height="12" fill="#A85072" />\n  <rect x="276" y="288" width="12" height="12" fill="#407A5E" />\n  <rect x="288" y="288" width="12" height="12" fill="#407A5E" />\n  <rect x="300" y="288" width="12" height="12" fill="#2E5A44" />\n  <rect x="312" y="288" width="12" height="12" fill="#C2B280" />\n  <rect x="384" y="288" width="12" height="12" fill="#EEDC9A" />\n  <rect x="168" y="300" width="12" height="12" fill="#2E5A44" />\n  <rect x="180" y="300" width="12" height="12" fill="#407A5E" />\n  <rect x="192" y="300" width="12" height="12" fill="#407A5E" />\n  <rect x="204" y="300" width="12" height="12" fill="#407A5E" />\n  <rect x="216" y="300" width="12" height="12" fill="#E182A4" />\n  <rect x="228" y="300" width="12" height="12" fill="#E182A4" />\n  <rect x="240" y="300" width="12" height="12" fill="#A85072" />\n  <rect x="252" y="300" width="12" height="12" fill="#A85072" />\n  <rect x="264" y="300" width="12" height="12" fill="#E182A4" />\n  <rect x="276" y="300" width="12" height="12" fill="#E182A4" />\n  <rect x="288" y="300" width="12" height="12" fill="#407A5E" />\n  <rect x="300" y="300" width="12" height="12" fill="#2E5A44" />\n  <rect x="168" y="312" width="12" height="12" fill="#2E5A44" />\n  <rect x="180" y="312" width="12" height="12" fill="#407A5E" />\n  <rect x="192" y="312" width="12" height="12" fill="#407A5E" />\n  <rect x="204" y="312" width="12" height="12" fill="#407A5E" />\n  <rect x="216" y="312" width="12" height="12" fill="#E182A4" />\n  <rect x="228" y="312" width="12" height="12" fill="#E182A4" />\n  <rect x="240" y="312" width="12" height="12" fill="#A85072" />\n  <rect x="252" y="312" width="12" height="12" fill="#A85072" />\n  <rect x="264" y="312" width="12" height="12" fill="#E182A4" />\n  <rect x="276" y="312" width="12" height="12" fill="#E182A4" />\n  <rect x="288" y="312" width="12" height="12" fill="#407A5E" />\n  <rect x="300" y="312" width="12" height="12" fill="#2E5A44" />\n  <rect x="168" y="324" width="12" height="12" fill="#C2B280" />\n  <rect x="180" y="324" width="12" height="12" fill="#C2B280" />\n  <rect x="192" y="324" width="12" height="12" fill="#C2B280" />\n  <rect x="204" y="324" width="12" height="12" fill="#C2B280" />\n  <rect x="216" y="324" width="12" height="12" fill="#C2B280" />\n  <rect x="228" y="324" width="12" height="12" fill="#A85072" />\n  <rect x="240" y="324" width="12" height="12" fill="#A85072" />\n  <rect x="252" y="324" width="12" height="12" fill="#A85072" />\n  <rect x="264" y="324" width="12" height="12" fill="#A85072" />\n  <rect x="276" y="324" width="12" height="12" fill="#C2B280" />\n  <rect x="288" y="324" width="12" height="12" fill="#C2B280" />\n  <rect x="300" y="324" width="12" height="12" fill="#C2B280" />\n  <rect x="168" y="336" width="12" height="12" fill="#543D2A" />\n  <rect x="180" y="336" width="12" height="12" fill="#543D2A" />\n  <rect x="192" y="336" width="12" height="12" fill="#543D2A" />\n  <rect x="204" y="336" width="12" height="12" fill="#543D2A" />\n  <rect x="216" y="336" width="12" height="12" fill="#543D2A" />\n  <rect x="228" y="336" width="12" height="12" fill="#543D2A" />\n  <rect x="240" y="336" width="12" height="12" fill="#543D2A" />\n  <rect x="252" y="336" width="12" height="12" fill="#543D2A" />\n  <rect x="264" y="336" width="12" height="12" fill="#543D2A" />\n  <rect x="276" y="336" width="12" height="12" fill="#543D2A" />\n  <rect x="288" y="336" width="12" height="12" fill="#543D2A" />\n  <rect x="300" y="336" width="12" height="12" fill="#543D2A" />\n  <rect x="168" y="348" width="12" height="12" fill="#543D2A" />\n  <rect x="180" y="348" width="12" height="12" fill="#543D2A" />\n  <rect x="192" y="348" width="12" height="12" fill="#543D2A" />\n  <rect x="204" y="348" width="12" height="12" fill="#543D2A" />\n  <rect x="216" y="348" width="12" height="12" fill="#543D2A" />\n  <rect x="228" y="348" width="12" height="12" fill="#543D2A" />\n  <rect x="240" y="348" width="12" height="12" fill="#543D2A" />\n  <rect x="252" y="348" width="12" height="12" fill="#543D2A" />\n  <rect x="264" y="348" width="12" height="12" fill="#543D2A" />\n  <rect x="276" y="348" width="12" height="12" fill="#543D2A" />\n  <rect x="288" y="348" width="12" height="12" fill="#543D2A" />\n  <rect x="300" y="348" width="12" height="12" fill="#543D2A" />\n  <rect x="168" y="360" width="12" height="12" fill="#543D2A" />\n  <rect x="180" y="360" width="12" height="12" fill="#543D2A" />\n  <rect x="192" y="360" width="12" height="12" fill="#543D2A" />\n  <rect x="204" y="360" width="12" height="12" fill="#543D2A" />\n  <rect x="216" y="360" width="12" height="12" fill="#543D2A" />\n  <rect x="252" y="360" width="12" height="12" fill="#543D2A" />\n  <rect x="264" y="360" width="12" height="12" fill="#543D2A" />\n  <rect x="276" y="360" width="12" height="12" fill="#543D2A" />\n  <rect x="288" y="360" width="12" height="12" fill="#543D2A" />\n  <rect x="300" y="360" width="12" height="12" fill="#543D2A" />\n  <rect x="168" y="372" width="12" height="12" fill="#3A291A" />\n  <rect x="180" y="372" width="12" height="12" fill="#3A291A" />\n  <rect x="192" y="372" width="12" height="12" fill="#3A291A" />\n  <rect x="204" y="372" width="12" height="12" fill="#3A291A" />\n  <rect x="216" y="372" width="12" height="12" fill="#3A291A" />\n  <rect x="252" y="372" width="12" height="12" fill="#3A291A" />\n  <rect x="264" y="372" width="12" height="12" fill="#3A291A" />\n  <rect x="276" y="372" width="12" height="12" fill="#3A291A" />\n  <rect x="288" y="372" width="12" height="12" fill="#3A291A" />\n  <rect x="300" y="372" width="12" height="12" fill="#3A291A" />\n  <rect x="168" y="384" width="12" height="12" fill="#EEDC9A" />\n  <rect x="180" y="384" width="12" height="12" fill="#EEDC9A" />\n  <rect x="192" y="384" width="12" height="12" fill="#EEDC9A" />\n  <rect x="204" y="384" width="12" height="12" fill="#EEDC9A" />\n  <rect x="264" y="384" width="12" height="12" fill="#EEDC9A" />\n  <rect x="276" y="384" width="12" height="12" fill="#EEDC9A" />\n  <rect x="288" y="384" width="12" height="12" fill="#EEDC9A" />\n  <rect x="300" y="384" width="12" height="12" fill="#EEDC9A" />\n  <rect x="156" y="396" width="12" height="12" fill="#EEDC9A" />\n  <rect x="168" y="396" width="12" height="12" fill="#EEDC9A" />\n  <rect x="180" y="396" width="12" height="12" fill="#EEDC9A" />\n  <rect x="192" y="396" width="12" height="12" fill="#EEDC9A" />\n  <rect x="204" y="396" width="12" height="12" fill="#EEDC9A" />\n  <rect x="264" y="396" width="12" height="12" fill="#EEDC9A" />\n  <rect x="276" y="396" width="12" height="12" fill="#EEDC9A" />\n  <rect x="288" y="396" width="12" height="12" fill="#EEDC9A" />\n  <rect x="300" y="396" width="12" height="12" fill="#EEDC9A" />\n  <rect x="312" y="396" width="12" height="12" fill="#EEDC9A" />\n  </g>\n  <rect x="492" y="228" width="12" height="12" fill="#EEDC9A" />\n  <rect x="504" y="228" width="12" height="12" fill="#EEDC9A" />\n  <rect x="516" y="228" width="12" height="12" fill="#EEDC9A" />\n  <rect x="564" y="228" width="12" height="12" fill="#EEDC9A" />\n  <rect x="576" y="228" width="12" height="12" fill="#EEDC9A" />\n  <rect x="588" y="228" width="12" height="12" fill="#EEDC9A" />\n  <rect x="636" y="228" width="12" height="12" fill="#EEDC9A" />\n  <rect x="684" y="228" width="12" height="12" fill="#EEDC9A" />\n  <rect x="696" y="228" width="12" height="12" fill="#EEDC9A" />\n  <rect x="708" y="228" width="12" height="12" fill="#EEDC9A" />\n  <rect x="720" y="228" width="12" height="12" fill="#EEDC9A" />\n  <rect x="756" y="228" width="12" height="12" fill="#EEDC9A" />\n  <rect x="768" y="228" width="12" height="12" fill="#EEDC9A" />\n  <rect x="780" y="228" width="12" height="12" fill="#EEDC9A" />\n  <rect x="792" y="228" width="12" height="12" fill="#EEDC9A" />\n  <rect x="804" y="228" width="12" height="12" fill="#EEDC9A" />\n  <rect x="840" y="228" width="12" height="12" fill="#EEDC9A" />\n  <rect x="852" y="228" width="12" height="12" fill="#EEDC9A" />\n  <rect x="864" y="228" width="12" height="12" fill="#EEDC9A" />\n  <rect x="900" y="228" width="12" height="12" fill="#EEDC9A" />\n  <rect x="912" y="228" width="12" height="12" fill="#EEDC9A" />\n  <rect x="924" y="228" width="12" height="12" fill="#EEDC9A" />\n  <rect x="936" y="228" width="12" height="12" fill="#EEDC9A" />\n  <rect x="984" y="228" width="12" height="12" fill="#EEDC9A" />\n  <rect x="996" y="228" width="12" height="12" fill="#EEDC9A" />\n  <rect x="1008" y="228" width="12" height="12" fill="#EEDC9A" />\n  <rect x="1044" y="228" width="12" height="12" fill="#EEDC9A" />\n  <rect x="1092" y="228" width="12" height="12" fill="#EEDC9A" />\n  <rect x="480" y="240" width="12" height="12" fill="#EEDC9A" />\n  <rect x="552" y="240" width="12" height="12" fill="#EEDC9A" />\n  <rect x="624" y="240" width="12" height="12" fill="#EEDC9A" />\n  <rect x="648" y="240" width="12" height="12" fill="#EEDC9A" />\n  <rect x="684" y="240" width="12" height="12" fill="#EEDC9A" />\n  <rect x="732" y="240" width="12" height="12" fill="#EEDC9A" />\n  <rect x="756" y="240" width="12" height="12" fill="#EEDC9A" />\n  <rect x="828" y="240" width="12" height="12" fill="#EEDC9A" />\n  <rect x="900" y="240" width="12" height="12" fill="#EEDC9A" />\n  <rect x="948" y="240" width="12" height="12" fill="#EEDC9A" />\n  <rect x="972" y="240" width="12" height="12" fill="#EEDC9A" />\n  <rect x="1020" y="240" width="12" height="12" fill="#EEDC9A" />\n  <rect x="1044" y="240" width="12" height="12" fill="#EEDC9A" />\n  <rect x="1092" y="240" width="12" height="12" fill="#EEDC9A" />\n  <rect x="492" y="252" width="12" height="12" fill="#EEDC9A" />\n  <rect x="504" y="252" width="12" height="12" fill="#EEDC9A" />\n  <rect x="516" y="252" width="12" height="12" fill="#EEDC9A" />\n  <rect x="552" y="252" width="12" height="12" fill="#EEDC9A" />\n  <rect x="612" y="252" width="12" height="12" fill="#EEDC9A" />\n  <rect x="624" y="252" width="12" height="12" fill="#EEDC9A" />\n  <rect x="636" y="252" width="12" height="12" fill="#EEDC9A" />\n  <rect x="648" y="252" width="12" height="12" fill="#EEDC9A" />\n  <rect x="660" y="252" width="12" height="12" fill="#EEDC9A" />\n  <rect x="684" y="252" width="12" height="12" fill="#EEDC9A" />\n  <rect x="696" y="252" width="12" height="12" fill="#EEDC9A" />\n  <rect x="708" y="252" width="12" height="12" fill="#EEDC9A" />\n  <rect x="720" y="252" width="12" height="12" fill="#EEDC9A" />\n  <rect x="756" y="252" width="12" height="12" fill="#EEDC9A" />\n  <rect x="768" y="252" width="12" height="12" fill="#EEDC9A" />\n  <rect x="780" y="252" width="12" height="12" fill="#EEDC9A" />\n  <rect x="792" y="252" width="12" height="12" fill="#EEDC9A" />\n  <rect x="828" y="252" width="12" height="12" fill="#EEDC9A" />\n  <rect x="900" y="252" width="12" height="12" fill="#EEDC9A" />\n  <rect x="912" y="252" width="12" height="12" fill="#EEDC9A" />\n  <rect x="924" y="252" width="12" height="12" fill="#EEDC9A" />\n  <rect x="936" y="252" width="12" height="12" fill="#EEDC9A" />\n  <rect x="972" y="252" width="12" height="12" fill="#EEDC9A" />\n  <rect x="1020" y="252" width="12" height="12" fill="#EEDC9A" />\n  <rect x="1044" y="252" width="12" height="12" fill="#EEDC9A" />\n  <rect x="1068" y="252" width="12" height="12" fill="#EEDC9A" />\n  <rect x="1092" y="252" width="12" height="12" fill="#EEDC9A" />\n  <rect x="528" y="264" width="12" height="12" fill="#EEDC9A" />\n  <rect x="552" y="264" width="12" height="12" fill="#EEDC9A" />\n  <rect x="612" y="264" width="12" height="12" fill="#EEDC9A" />\n  <rect x="660" y="264" width="12" height="12" fill="#EEDC9A" />\n  <rect x="684" y="264" width="12" height="12" fill="#EEDC9A" />\n  <rect x="732" y="264" width="12" height="12" fill="#EEDC9A" />\n  <rect x="756" y="264" width="12" height="12" fill="#EEDC9A" />\n  <rect x="828" y="264" width="12" height="12" fill="#EEDC9A" />\n  <rect x="900" y="264" width="12" height="12" fill="#EEDC9A" />\n  <rect x="948" y="264" width="12" height="12" fill="#EEDC9A" />\n  <rect x="972" y="264" width="12" height="12" fill="#EEDC9A" />\n  <rect x="1020" y="264" width="12" height="12" fill="#EEDC9A" />\n  <rect x="1044" y="264" width="12" height="12" fill="#EEDC9A" />\n  <rect x="1056" y="264" width="12" height="12" fill="#EEDC9A" />\n  <rect x="1080" y="264" width="12" height="12" fill="#EEDC9A" />\n  <rect x="1092" y="264" width="12" height="12" fill="#EEDC9A" />\n  <rect x="492" y="276" width="12" height="12" fill="#EEDC9A" />\n  <rect x="504" y="276" width="12" height="12" fill="#EEDC9A" />\n  <rect x="516" y="276" width="12" height="12" fill="#EEDC9A" />\n  <rect x="564" y="276" width="12" height="12" fill="#EEDC9A" />\n  <rect x="576" y="276" width="12" height="12" fill="#EEDC9A" />\n  <rect x="588" y="276" width="12" height="12" fill="#EEDC9A" />\n  <rect x="612" y="276" width="12" height="12" fill="#EEDC9A" />\n  <rect x="660" y="276" width="12" height="12" fill="#EEDC9A" />\n  <rect x="684" y="276" width="12" height="12" fill="#EEDC9A" />\n  <rect x="732" y="276" width="12" height="12" fill="#EEDC9A" />\n  <rect x="756" y="276" width="12" height="12" fill="#EEDC9A" />\n  <rect x="768" y="276" width="12" height="12" fill="#EEDC9A" />\n  <rect x="780" y="276" width="12" height="12" fill="#EEDC9A" />\n  <rect x="792" y="276" width="12" height="12" fill="#EEDC9A" />\n  <rect x="804" y="276" width="12" height="12" fill="#EEDC9A" />\n  <rect x="840" y="276" width="12" height="12" fill="#EEDC9A" />\n  <rect x="852" y="276" width="12" height="12" fill="#EEDC9A" />\n  <rect x="864" y="276" width="12" height="12" fill="#EEDC9A" />\n  <rect x="900" y="276" width="12" height="12" fill="#EEDC9A" />\n  <rect x="948" y="276" width="12" height="12" fill="#EEDC9A" />\n  <rect x="984" y="276" width="12" height="12" fill="#EEDC9A" />\n  <rect x="996" y="276" width="12" height="12" fill="#EEDC9A" />\n  <rect x="1008" y="276" width="12" height="12" fill="#EEDC9A" />\n  <rect x="1044" y="276" width="12" height="12" fill="#EEDC9A" />\n  <rect x="1092" y="276" width="12" height="12" fill="#EEDC9A" />\n</svg>